<svg width="3673" height="1982" xmlns="http://www.w3.org/2000/svg" xmlns:xlink="http://www.w3.org/1999/xlink" xml:space="preserve" overflow="hidden"><g transform="translate(-381 -256)"><rect x="1162" y="264" width="1670" height="1974" fill="#F8E7D3"/><text font-family="Arial,Arial_MSFontService,sans-serif" font-weight="700" font-size="83" transform="matrix(1 0 0 1 1194.78 361)">D</text><text font-family="Arial,Arial_MSFontService,sans-serif" font-weight="700" font-size="83" transform="matrix(1 0 0 1 1254.36 361)">L</text><text font-family="Arial,Arial_MSFontService,sans-serif" font-weight="700" font-size="83" transform="matrix(1 0 0 1 1304.78 361)">CHOMP</text><rect x="1459.5" y="985.5" width="486" height="120" stroke="#000000" stroke-width="4.58333" stroke-linejoin="round" stroke-miterlimit="10" fill="#7030A0"/><text fill="#FFFFFF" font-family="Arial,Arial_MSFontService,sans-serif" font-weight="700" font-size="64" transform="matrix(1 0 0 1 1499.02 1068)">BPS Encoder</text><path d="M1699.22 1107.5 1699.22 1330.79 1695.78 1330.79 1695.78 1107.5ZM1711.25 1326.21 1697.5 1353.71 1683.75 1326.21Z" fill="#7F7F7F"/><path d="M0.00464866-1.71874 756.2 0.326527 756.191 3.76401-0.00464866 1.71874ZM751.649-11.7171 779.111 2.10725 751.574 15.7828Z" fill="#7F7F7F" transform="matrix(1 0 0 -1 748.5 1487.61)"/><path d="M749.5 2021.78 1504.1 2021.78 1504.1 2025.22 749.5 2025.22ZM1499.52 2009.75 1527.02 2023.5 1499.52 2037.25Z" fill="#7F7F7F"/><rect x="2000.5" y="417.5" width="450" height="193" stroke="#000000" stroke-width="4.58333" stroke-linejoin="round" stroke-miterlimit="10" fill="#D78824"/><text fill="#FFFFFF" font-family="Arial,Arial_MSFontService,sans-serif" font-weight="700" font-size="73" transform="matrix(1 0 0 1 2088.93 541)">CHOMP</text><path d="M0.00486759-1.71874 593.726-0.0372863 593.716 3.4002-0.00486759 1.71874ZM589.177-12.0815 616.638 1.74636 589.099 15.4184Z" fill="#7F7F7F" transform="matrix(1 0 0 -1 2444.5 514.246)"/><path d="M1.71875-1.36814e-06 1.71909 430.461-1.71841 430.461-1.71875 1.36814e-06ZM13.7503 425.878 0.000360892 453.378-13.7497 425.878Z" fill="#7F7F7F" transform="matrix(1 0 0 -1 2220.5 1356.88)"/><text font-family="Arial,Arial_MSFontService,sans-serif" font-weight="700" font-size="50" transform="matrix(1 0 0 1 2247.03 1115)">Intermediate </text><text font-family="Arial,Arial_MSFontService,sans-serif" font-weight="700" font-size="50" transform="matrix(1 0 0 1 2247.03 1176)">Trajectory </text><text font-family="Arial,Arial_MSFontService,sans-serif" font-weight="700" font-size="50" transform="matrix(1 0 0 1 2504.27 1176)">Guess</text><path d="M701.504 513.781 1971.58 516.596 1971.58 520.034 701.496 517.219ZM1967.02 504.555 1994.49 518.366 1966.96 532.055Z" fill="#7F7F7F"/><rect x="1533.5" y="1356.5" width="1244" height="727" stroke="#000000" stroke-width="4.58333" stroke-linejoin="round" stroke-miterlimit="10" fill="#0076A8"/><text fill="#FFFFFF" font-family="Arial,Arial_MSFontService,sans-serif" font-weight="700" font-size="64" transform="matrix(1 0 0 1 1565.69 1434)">Pretrained Network</text><path d="M0-1.71875 2.12108-1.71875C3.07032-1.71875 3.83983-0.949239 3.83983 0L3.83983 11.6289 0.402328 11.6289 0.402328 0 2.12108 1.71875 0 1.71875ZM3.83983 21.9414 3.83983 35.6914 0.402328 35.6914 0.402328 21.9414ZM3.83983 46.0039 3.83983 59.7539 0.402328 59.7539 0.402328 46.0039ZM3.83983 70.0664 3.83983 83.8164 0.402328 83.8164 0.402328 70.0664ZM3.83983 94.1289 3.83983 107.879 0.402328 107.879 0.402328 94.1289ZM3.83983 118.191 3.83983 131.941 0.402328 131.941 0.402328 118.191ZM3.83983 142.254 3.83983 156.004 0.402328 156.004 0.402328 142.254ZM3.83983 166.316 3.83983 180.066 0.402328 180.066 0.402328 166.316ZM3.83983 190.379 3.83983 204.129 0.402328 204.129 0.402328 190.379ZM3.83983 214.441 3.83983 228.191 0.402328 228.191 0.402328 214.441ZM3.83983 238.504 3.83983 252.254 0.402328 252.254 0.402328 238.504ZM3.83983 262.566 3.83983 276.316 0.402328 276.316 0.402328 262.566ZM3.83983 286.629 3.83983 300.379 0.402328 300.379 0.402328 286.629ZM3.83983 310.691 3.83983 324.441 0.402328 324.441 0.402328 310.691ZM3.83983 334.754 3.83983 348.504 0.402328 348.504 0.402328 334.754ZM3.83983 358.816 3.83983 372.566 0.402328 372.566 0.402328 358.816ZM3.83983 382.879 3.83983 396.629 0.402328 396.629 0.402328 382.879ZM3.83983 406.941 3.83983 420.691 0.402328 420.691 0.402328 406.941ZM3.83983 431.004 3.83983 444.754 0.402328 444.754 0.402328 431.004ZM3.83983 455.066 3.83983 468.816 0.402328 468.816 0.402328 455.066ZM3.83983 479.129 3.83983 492.879 0.402328 492.879 0.402328 479.129ZM3.83983 503.191 3.83983 516.941 0.402328 516.941 0.402328 503.191ZM3.83983 527.254 3.83983 541.004 0.402328 541.004 0.402328 527.254ZM3.83983 551.316 3.83983 565.066 0.402328 565.066 0.402328 551.316ZM3.83983 575.379 3.83983 589.129 0.402328 589.129 0.402328 575.379ZM3.83983 599.441 3.83983 613.191 0.402328 613.191 0.402328 599.441ZM3.83983 623.504 3.83983 637.254 0.402328 637.254 0.402328 623.504ZM3.83983 647.566 3.83983 661.316 0.402328 661.316 0.402328 647.566ZM3.83983 671.629 3.83983 679.701 2.12108 677.982 7.79927 677.982 7.79927 681.419 2.12108 681.419C1.17184 681.419 0.402328 680.65 0.402328 679.701L0.402328 671.629ZM18.1118 677.982 31.8618 677.982 31.8618 681.419 18.1118 681.419ZM42.1743 677.982 55.9243 677.982 55.9243 681.419 42.1743 681.419ZM66.2368 677.982 79.9868 677.982 79.9868 681.419 66.2368 681.419ZM90.2993 677.982 104.049 677.982 104.049 681.419 90.2993 681.419ZM114.362 677.982 128.112 677.982 128.112 681.419 114.362 681.419ZM138.424 677.982 152.174 677.982 152.174 681.419 138.424 681.419ZM162.487 677.982 176.237 677.982 176.237 681.419 162.487 681.419ZM186.549 677.982 200.299 677.982 200.299 681.419 186.549 681.419ZM210.612 677.982 224.362 677.982 224.362 681.419 210.612 681.419ZM234.674 677.982 248.424 677.982 248.424 681.419 234.674 681.419ZM258.737 677.982 272.487 677.982 272.487 681.419 258.737 681.419ZM282.799 677.982 296.549 677.982 296.549 681.419 282.799 681.419ZM306.862 677.982 320.612 677.982 320.612 681.419 306.862 681.419ZM330.924 677.982 344.674 677.982 344.674 681.419 330.924 681.419ZM354.987 677.982 368.737 677.982 368.737 681.419 354.987 681.419ZM379.049 677.982 392.799 677.982 392.799 681.419 379.049 681.419ZM403.112 677.982 416.862 677.982 416.862 681.419 403.112 681.419ZM427.174 677.982 440.924 677.982 440.924 681.419 427.174 681.419ZM451.237 677.982 464.987 677.982 464.987 681.419 451.237 681.419ZM475.299 677.982 489.049 677.982 489.049 681.419 475.299 681.419ZM499.362 677.982 513.112 677.982 513.112 681.419 499.362 681.419ZM523.424 677.982 537.174 677.982 537.174 681.419 523.424 681.419ZM547.487 677.982 561.237 677.982 561.237 681.419 547.487 681.419ZM571.549 677.982 585.299 677.982 585.299 681.419 571.549 681.419ZM595.612 677.982 609.362 677.982 609.362 681.419 595.612 681.419ZM619.674 677.982 633.424 677.982 633.424 681.419 619.674 681.419ZM643.737 677.982 657.487 677.982 657.487 681.419 643.737 681.419ZM667.799 677.982 681.549 677.982 681.549 681.419 667.799 681.419ZM691.862 677.982 705.612 677.982 705.612 681.419 691.862 681.419ZM715.924 677.982 729.674 677.982 729.674 681.419 715.924 681.419ZM739.987 677.982 753.737 677.982 753.737 681.419 739.987 681.419ZM764.049 677.982 777.799 677.982 777.799 681.419 764.049 681.419ZM788.112 677.982 801.862 677.982 801.862 681.419 788.112 681.419ZM812.174 677.982 825.924 677.982 825.924 681.419 812.174 681.419ZM836.237 677.982 849.987 677.982 849.987 681.419 836.237 681.419ZM860.299 677.982 874.049 677.982 874.049 681.419 860.299 681.419ZM884.362 677.982 898.112 677.982 898.112 681.419 884.362 681.419ZM908.424 677.982 922.174 677.982 922.174 681.419 908.424 681.419ZM932.487 677.982 941.056 677.982 941.056 681.419 932.487 681.419ZM936.473 665.951 963.973 679.701 936.473 693.451Z" fill="#7F7F7F" transform="matrix(1 0 0 -1 1198.5 1485.2)"/><path d="M1266.29 1433.5C1356.77 1479.24 1369.02 1491.57 1368.48 1548.05 1367.95 1604.52 1294.5 1626.53 1261.5 1643.5" stroke="#7F7F7F" stroke-width="3.4375" stroke-linejoin="round" stroke-miterlimit="10" stroke-dasharray="13.75 10.3125" fill="none" fill-rule="evenodd"/><path d="M1261.5 1643.5 1261.5 2022.89" stroke="#7F7F7F" stroke-width="3.4375" stroke-linejoin="round" stroke-miterlimit="10" stroke-dasharray="13.75 10.3125" fill="none" fill-rule="evenodd"/><path d="M0-1.71875 2.94068-1.71875C3.88992-1.71875 4.65943-0.949239 4.65943 0L4.65943 10.8093 1.22193 10.8093 1.22193 0 2.94068 1.71875 0 1.71875ZM4.65943 21.1218 4.65943 34.8718 1.22193 34.8718 1.22193 21.1218ZM4.65943 45.1843 4.65943 58.9343 1.22193 58.9343 1.22193 45.1843ZM4.65943 69.2468 4.65943 82.9968 1.22193 82.9968 1.22193 69.2468ZM4.65943 93.3093 4.65943 107.059 1.22193 107.059 1.22193 93.3093ZM4.65943 117.372 4.65943 131.122 1.22193 131.122 1.22193 117.372ZM4.65943 141.434 4.65943 155.184 1.22193 155.184 1.22193 141.434ZM4.65943 165.497 4.65943 179.247 1.22193 179.247 1.22193 165.497ZM4.65943 189.559 4.65943 203.309 1.22193 203.309 1.22193 189.559ZM4.65943 213.622 4.65943 227.372 1.22193 227.372 1.22193 213.622ZM4.65943 237.684 4.65943 251.434 1.22193 251.434 1.22193 237.684ZM4.65943 261.747 4.65943 275.497 1.22193 275.497 1.22193 261.747ZM4.65943 285.809 4.65943 299.559 1.22193 299.559 1.22193 285.809ZM4.65943 309.872 4.65943 323.622 1.22193 323.622 1.22193 309.872ZM4.65943 333.934 4.65943 347.684 1.22193 347.684 1.22193 333.934ZM4.65943 357.997 4.65943 371.747 1.22193 371.747 1.22193 357.997ZM4.65943 382.059 4.65943 395.809 1.22193 395.809 1.22193 382.059ZM4.65943 406.122 4.65943 419.872 1.22193 419.872 1.22193 406.122ZM4.65943 430.184 4.65943 443.934 1.22193 443.934 1.22193 430.184ZM4.65943 454.247 4.65943 467.997 1.22193 467.997 1.22193 454.247ZM4.65943 478.309 4.65943 492.059 1.22193 492.059 1.22193 478.309ZM4.65943 502.372 4.65943 516.122 1.22193 516.122 1.22193 502.372ZM4.65943 526.434 4.65943 540.184 1.22193 540.184 1.22193 526.434ZM4.65943 550.497 4.65943 564.247 1.22193 564.247 1.22193 550.497ZM3.54937 572.232 17.2994 572.232 17.2994 575.669 3.54937 575.669ZM27.6119 572.232 41.3619 572.232 41.3619 575.669 27.6119 575.669ZM51.6744 572.232 65.4244 572.232 65.4244 575.669 51.6744 575.669ZM75.7369 572.232 89.4869 572.232 89.4869 575.669 75.7369 575.669ZM99.7994 572.232 113.549 572.232 113.549 575.669 99.7994 575.669ZM123.862 572.232 137.612 572.232 137.612 575.669 123.862 575.669ZM147.924 572.232 161.674 572.232 161.674 575.669 147.924 575.669ZM171.987 572.232 185.737 572.232 185.737 575.669 171.987 575.669ZM196.049 572.232 209.799 572.232 209.799 575.669 196.049 575.669ZM220.112 572.232 233.862 572.232 233.862 575.669 220.112 575.669ZM244.174 572.232 257.924 572.232 257.924 575.669 244.174 575.669ZM268.237 572.232 281.987 572.232 281.987 575.669 268.237 575.669ZM292.299 572.232 306.049 572.232 306.049 575.669 292.299 575.669ZM316.362 572.232 330.112 572.232 330.112 575.669 316.362 575.669ZM340.424 572.232 354.174 572.232 354.174 575.669 340.424 575.669ZM364.487 572.232 378.237 572.232 378.237 575.669 364.487 575.669ZM388.549 572.232 402.299 572.232 402.299 575.669 388.549 575.669ZM412.612 572.232 426.362 572.232 426.362 575.669 412.612 575.669ZM436.674 572.232 450.424 572.232 450.424 575.669 436.674 575.669ZM460.737 572.232 474.487 572.232 474.487 575.669 460.737 575.669ZM484.799 572.232 498.549 572.232 498.549 575.669 484.799 575.669ZM508.862 572.232 522.612 572.232 522.612 575.669 508.862 575.669ZM532.924 572.232 546.674 572.232 546.674 575.669 532.924 575.669ZM556.987 572.232 570.737 572.232 570.737 575.669 556.987 575.669ZM581.049 572.232 594.799 572.232 594.799 575.669 581.049 575.669ZM605.112 572.232 618.862 572.232 618.862 575.669 605.112 575.669ZM629.174 572.232 642.924 572.232 642.924 575.669 629.174 575.669ZM653.237 572.232 666.987 572.232 666.987 575.669 653.237 575.669ZM677.299 572.232 691.049 572.232 691.049 575.669 677.299 575.669ZM701.362 572.232 715.112 572.232 715.112 575.669 701.362 575.669ZM725.424 572.232 739.174 572.232 739.174 575.669 725.424 575.669ZM749.487 572.232 763.237 572.232 763.237 575.669 749.487 575.669ZM773.549 572.232 787.299 572.232 787.299 575.669 773.549 575.669ZM797.612 572.232 811.362 572.232 811.362 575.669 797.612 575.669ZM821.674 572.232 835.424 572.232 835.424 575.669 821.674 575.669ZM845.737 572.232 859.487 572.232 859.487 575.669 845.737 575.669ZM869.799 572.232 879.116 572.232 879.116 575.669 869.799 575.669ZM874.533 560.201 902.033 573.951 874.533 587.701Z" fill="#7F7F7F" transform="matrix(1 0 0 -1 1261.5 1433.45)"/><path d="M2155 837.5C2155 801.325 2184.1 772 2220 772 2255.9 772 2285 801.325 2285 837.5 2285 873.675 2255.9 903 2220 903 2184.1 903 2155 873.675 2155 837.5Z" fill-rule="evenodd"/><text fill="#FFFFFF" font-family="Arial,Arial_MSFontService,sans-serif" font-weight="700" font-size="110" transform="matrix(1 0 0 1 2187.93 878)">+</text><path d="M2218.78 773.266 2218.78 636.417 2222.22 636.417 2222.22 773.266ZM2206.75 641 2220.5 613.5 2234.25 641Z" fill="#7F7F7F"/><text font-family="Arial,Arial_MSFontService,sans-serif" font-weight="700" font-size="50" transform="matrix(1 0 0 1 2257.8 695)">Initial </text><text font-family="Arial,Arial_MSFontService,sans-serif" font-weight="700" font-size="50" transform="matrix(1 0 0 1 2257.8 756)">Trajectory </text><text font-family="Arial,Arial_MSFontService,sans-serif" font-weight="700" font-size="50" transform="matrix(1 0 0 1 2515.04 756)">Guess</text><path d="M1706.23 753.5C1757.81 785.735 1764.79 794.425 1764.49 834.228 1764.19 874.03 1722.31 889.541 1703.5 901.5" stroke="#7F7F7F" stroke-width="3.4375" stroke-linejoin="round" stroke-miterlimit="10" fill="none" fill-rule="evenodd"/><path d="M1705.22 901.5 1705.22 960.311 1701.78 960.311 1701.78 901.5ZM1717.25 955.728 1703.5 983.228 1689.75 955.728Z" fill="#7F7F7F"/><path d="M1707.5 513.5 1707.5 756.135" stroke="#7F7F7F" stroke-width="3.4375" stroke-linejoin="round" stroke-miterlimit="10" fill="none" fill-rule="evenodd"/><text font-family="Arial,Arial_MSFontService,sans-serif" font-weight="700" font-size="50" transform="matrix(1 0 0 1 1722.87 1216)">Environment</text><text font-family="Arial,Arial_MSFontService,sans-serif" font-weight="700" font-size="50" transform="matrix(1 0 0 1 1722.87 1277)">Encoding Vector</text><rect x="1572.5" y="1550.5" width="1172" height="430" stroke="#000000" stroke-width="9.16667" stroke-linejoin="round" stroke-miterlimit="10" fill="#FFFFFF"/><path d="M2628 1752 2716.41 1752 2716.41 1746 2732 1758 2716.41 1770 2716.41 1764 2628 1764Z" fill-rule="evenodd"/><path d="M2452 1752 2580.41 1752 2580.41 1746 2596 1758 2580.41 1770 2580.41 1764 2452 1764Z" fill-rule="evenodd"/><path d="M2017 1752.75 2185.06 1752.75 2185.06 1747 2200 1758.5 2185.06 1770 2185.06 1764.25 2017 1764.25Z" fill-rule="evenodd"/><path d="M1821 1753 1964.41 1753 1964.41 1747 1980 1759 1964.41 1771 1964.41 1765 1821 1765Z" fill-rule="evenodd"/><path d="M1646 1845.64 1795.64 1845.64 1795.64 1803.9 1781.63 1803.9 1800.82 1778 1820 1803.9 1805.99 1803.9 1805.99 1856 1646 1856Z" fill-rule="evenodd"/><path d="M0 65.9101 201.263 65.9101 201.263 25.2311 187.616 25.2311 206.308 0 225 25.2311 211.353 25.2311 211.353 76 0 76Z" fill-rule="evenodd" transform="matrix(1 0 0 -1 1595 1740)"/><path d="M1947 1692.5C1947 1679.52 1969.61 1669 1997.5 1669 2025.39 1669 2048 1679.52 2048 1692.5 2048 1705.48 2025.39 1716 1997.5 1716 1969.61 1716 1947 1705.48 1947 1692.5Z" stroke="#000000" stroke-width="10.3125" stroke-linejoin="round" stroke-miterlimit="10" fill="#FFFFFF" fill-rule="evenodd"/><rect x="1937" y="1687" width="126" height="56" fill="#FFFFFF"/><rect x="1944" y="1687" width="8.99988" height="69.9998"/><path d="M2038 1668.5 2048.5 1658 2059 1668.5 2053.75 1668.5 2053.75 1687 2043.25 1687 2043.25 1668.5Z" fill-rule="evenodd"/><path d="M2031.5 1637.5C2031.5 1627.56 2039.78 1619.5 2050 1619.5 2060.22 1619.5 2068.5 1627.56 2068.5 1637.5 2068.5 1647.44 2060.22 1655.5 2050 1655.5 2039.78 1655.5 2031.5 1647.44 2031.5 1637.5Z" stroke="#000000" stroke-width="6.875" stroke-linejoin="round" stroke-miterlimit="10" fill="#FFFFFF" fill-rule="evenodd"/><rect x="1829" y="1630" width="11" height="126"/><path d="M1836 1629.75 2016.06 1629.75 2016.06 1624 2031 1635.5 2016.06 1647 2016.06 1641.25 1836 1641.25Z" fill-rule="evenodd"/><path d="M1987 1723.16 1992.75 1723.16 1992.75 1640 2004.25 1640 2004.25 1723.16 2010 1723.16 1998.5 1740Z" fill-rule="evenodd"/><path d="M1687 1604.67C1687 1603.75 1687.75 1603 1688.67 1603L1695.33 1603C1696.25 1603 1697 1603.75 1697 1604.67L1697 1735.33C1697 1736.25 1696.25 1737 1695.33 1737L1688.67 1737C1687.75 1737 1687 1736.25 1687 1735.33Z" fill="#7F7F7F" fill-rule="evenodd"/><path d="M1702 1610.5C1702 1609.67 1702.67 1609 1703.5 1609L1709.5 1609C1710.33 1609 1711 1609.67 1711 1610.5L1711 1731.5C1711 1732.33 1710.33 1733 1709.5 1733L1703.5 1733C1702.67 1733 1702 1732.33 1702 1731.5Z" fill="#7F7F7F" fill-rule="evenodd"/><path d="M1716 1616.67C1716 1615.75 1716.75 1615 1717.67 1615L1724.33 1615C1725.25 1615 1726 1615.75 1726 1616.67L1726 1723.33C1726 1724.25 1725.25 1725 1724.33 1725L1717.67 1725C1716.75 1725 1716 1724.25 1716 1723.33Z" fill="#7F7F7F" fill-rule="evenodd"/><path d="M1731 1623.5C1731 1622.67 1731.67 1622 1732.5 1622L1738.5 1622C1739.33 1622 1740 1622.67 1740 1623.5L1740 1716.5C1740 1717.33 1739.33 1718 1738.5 1718L1732.5 1718C1731.67 1718 1731 1717.33 1731 1716.5Z" fill="#7F7F7F" fill-rule="evenodd"/><path d="M1745 1631.5C1745 1630.67 1745.67 1630 1746.5 1630L1752.5 1630C1753.33 1630 1754 1630.67 1754 1631.5L1754 1708.5C1754 1709.33 1753.33 1710 1752.5 1710L1746.5 1710C1745.67 1710 1745 1709.33 1745 1708.5Z" fill="#7F7F7F" fill-rule="evenodd"/><path d="M1687 1783.67C1687 1782.75 1687.75 1782 1688.67 1782L1695.33 1782C1696.25 1782 1697 1782.75 1697 1783.67L1697 1914.33C1697 1915.25 1696.25 1916 1695.33 1916L1688.67 1916C1687.75 1916 1687 1915.25 1687 1914.33Z" fill="#7F7F7F" fill-rule="evenodd"/><path d="M1702 1789.5C1702 1788.67 1702.67 1788 1703.5 1788L1709.5 1788C1710.33 1788 1711 1788.67 1711 1789.5L1711 1909.5C1711 1910.33 1710.33 1911 1709.5 1911L1703.5 1911C1702.67 1911 1702 1910.33 1702 1909.5Z" fill="#7F7F7F" fill-rule="evenodd"/><path d="M1716 1794.67C1716 1793.75 1716.75 1793 1717.67 1793L1724.33 1793C1725.25 1793 1726 1793.75 1726 1794.67L1726 1902.33C1726 1903.25 1725.25 1904 1724.33 1904L1717.67 1904C1716.75 1904 1716 1903.25 1716 1902.33Z" fill="#7F7F7F" fill-rule="evenodd"/><path d="M1731 1801.5C1731 1800.67 1731.67 1800 1732.5 1800L1738.5 1800C1739.33 1800 1740 1800.67 1740 1801.5L1740 1895.5C1740 1896.33 1739.33 1897 1738.5 1897L1732.5 1897C1731.67 1897 1731 1896.33 1731 1895.5Z" fill="#7F7F7F" fill-rule="evenodd"/><path d="M1745 1809.5C1745 1808.67 1745.67 1808 1746.5 1808L1752.5 1808C1753.33 1808 1754 1808.67 1754 1809.5L1754 1887.5C1754 1888.33 1753.33 1889 1752.5 1889L1746.5 1889C1745.67 1889 1745 1888.33 1745 1887.5Z" fill="#7F7F7F" fill-rule="evenodd"/><path d="M1859 1692.5C1859 1691.67 1859.67 1691 1860.5 1691L1866.5 1691C1867.33 1691 1868 1691.67 1868 1692.5L1868 1824.5C1868 1825.33 1867.33 1826 1866.5 1826L1860.5 1826C1859.67 1826 1859 1825.33 1859 1824.5Z" fill="#7F7F7F" fill-rule="evenodd"/><path d="M1873 1698.67C1873 1697.75 1873.75 1697 1874.67 1697L1881.33 1697C1882.25 1697 1883 1697.75 1883 1698.67L1883 1819.33C1883 1820.25 1882.25 1821 1881.33 1821L1874.67 1821C1873.75 1821 1873 1820.25 1873 1819.33Z" fill="#7F7F7F" fill-rule="evenodd"/><path d="M1888 1704.5C1888 1703.67 1888.67 1703 1889.5 1703L1895.5 1703C1896.33 1703 1897 1703.67 1897 1704.5L1897 1811.5C1897 1812.33 1896.33 1813 1895.5 1813L1889.5 1813C1888.67 1813 1888 1812.33 1888 1811.5Z" fill="#7F7F7F" fill-rule="evenodd"/><path d="M1902 1711.67C1902 1710.75 1902.75 1710 1903.67 1710L1910.33 1710C1911.25 1710 1912 1710.75 1912 1711.67L1912 1804.33C1912 1805.25 1911.25 1806 1910.33 1806L1903.67 1806C1902.75 1806 1902 1805.25 1902 1804.33Z" fill="#7F7F7F" fill-rule="evenodd"/><path d="M1916 1719.67C1916 1718.75 1916.75 1718 1917.67 1718L1924.33 1718C1925.25 1718 1926 1718.75 1926 1719.67L1926 1796.33C1926 1797.25 1925.25 1798 1924.33 1798L1917.67 1798C1916.75 1798 1916 1797.25 1916 1796.33Z" fill="#7F7F7F" fill-rule="evenodd"/><path d="M2076 1693.67C2076 1692.75 2076.75 1692 2077.67 1692L2084.33 1692C2085.25 1692 2086 1692.75 2086 1693.67L2086 1824.33C2086 1825.25 2085.25 1826 2084.33 1826L2077.67 1826C2076.75 1826 2076 1825.25 2076 1824.33Z" fill="#7F7F7F" fill-rule="evenodd"/><path d="M2091 1699.5C2091 1698.67 2091.67 1698 2092.5 1698L2098.5 1698C2099.33 1698 2100 1698.67 2100 1699.5L2100 1819.5C2100 1820.33 2099.33 1821 2098.5 1821L2092.5 1821C2091.67 1821 2091 1820.33 2091 1819.5Z" fill="#7F7F7F" fill-rule="evenodd"/><path d="M2105 1704.67C2105 1703.75 2105.75 1703 2106.67 1703L2113.33 1703C2114.25 1703 2115 1703.75 2115 1704.67L2115 1812.33C2115 1813.25 2114.25 1814 2113.33 1814L2106.67 1814C2105.75 1814 2105 1813.25 2105 1812.33Z" fill="#7F7F7F" fill-rule="evenodd"/><path d="M2120 1711.5C2120 1710.67 2120.67 1710 2121.5 1710L2127.5 1710C2128.33 1710 2129 1710.67 2129 1711.5L2129 1805.5C2129 1806.33 2128.33 1807 2127.5 1807L2121.5 1807C2120.67 1807 2120 1806.33 2120 1805.5Z" fill="#7F7F7F" fill-rule="evenodd"/><path d="M2134 1719.5C2134 1718.67 2134.67 1718 2135.5 1718L2141.5 1718C2142.33 1718 2143 1718.67 2143 1719.5L2143 1797.5C2143 1798.33 2142.33 1799 2141.5 1799L2135.5 1799C2134.67 1799 2134 1798.33 2134 1797.5Z" fill="#7F7F7F" fill-rule="evenodd"/><path d="M2497 1696.67C2497 1695.75 2497.75 1695 2498.67 1695L2505.33 1695C2506.25 1695 2507 1695.75 2507 1696.67L2507 1827.33C2507 1828.25 2506.25 1829 2505.33 1829L2498.67 1829C2497.75 1829 2497 1828.25 2497 1827.33Z" fill="#7F7F7F" fill-rule="evenodd"/><path d="M2512 1702.5C2512 1701.67 2512.67 1701 2513.5 1701L2519.5 1701C2520.33 1701 2521 1701.67 2521 1702.5L2521 1822.5C2521 1823.33 2520.33 1824 2519.5 1824L2513.5 1824C2512.67 1824 2512 1823.33 2512 1822.5Z" fill="#7F7F7F" fill-rule="evenodd"/><path d="M2526 1707.67C2526 1706.75 2526.75 1706 2527.67 1706L2534.33 1706C2535.25 1706 2536 1706.75 2536 1707.67L2536 1815.33C2536 1816.25 2535.25 1817 2534.33 1817L2527.67 1817C2526.75 1817 2526 1816.25 2526 1815.33Z" fill="#7F7F7F" fill-rule="evenodd"/><path d="M2541 1714.5C2541 1713.67 2541.67 1713 2542.5 1713L2548.5 1713C2549.33 1713 2550 1713.67 2550 1714.5L2550 1808.5C2550 1809.33 2549.33 1810 2548.5 1810L2542.5 1810C2541.67 1810 2541 1809.33 2541 1808.5Z" fill="#7F7F7F" fill-rule="evenodd"/><path d="M2555 1722.5C2555 1721.67 2555.67 1721 2556.5 1721L2562.5 1721C2563.33 1721 2564 1721.67 2564 1722.5L2564 1800.5C2564 1801.33 2563.33 1802 2562.5 1802L2556.5 1802C2555.67 1802 2555 1801.33 2555 1800.5Z" fill="#7F7F7F" fill-rule="evenodd"/><path d="M2648 1694.67C2648 1693.75 2648.75 1693 2649.67 1693L2656.33 1693C2657.25 1693 2658 1693.75 2658 1694.67L2658 1825.33C2658 1826.25 2657.25 1827 2656.33 1827L2649.67 1827C2648.75 1827 2648 1826.25 2648 1825.33Z" fill="#7F7F7F" fill-rule="evenodd"/><path d="M2662 1705.67C2662 1704.75 2662.75 1704 2663.67 1704L2670.33 1704C2671.25 1704 2672 1704.75 2672 1705.67L2672 1813.33C2672 1814.25 2671.25 1815 2670.33 1815L2663.67 1815C2662.75 1815 2662 1814.25 2662 1813.33Z" fill="#7F7F7F" fill-rule="evenodd"/><path d="M2676 1721.67C2676 1720.75 2676.75 1720 2677.67 1720L2684.33 1720C2685.25 1720 2686 1720.75 2686 1721.67L2686 1799.33C2686 1800.25 2685.25 1801 2684.33 1801L2677.67 1801C2676.75 1801 2676 1800.25 2676 1799.33Z" fill="#7F7F7F" fill-rule="evenodd"/><path d="M1783.5 1759.5C1783.5 1749.56 1791.78 1741.5 1802 1741.5 1812.22 1741.5 1820.5 1749.56 1820.5 1759.5 1820.5 1769.44 1812.22 1777.5 1802 1777.5 1791.78 1777.5 1783.5 1769.44 1783.5 1759.5Z" stroke="#000000" stroke-width="6.875" stroke-linejoin="round" stroke-miterlimit="10" fill="#FFFFFF" fill-rule="evenodd"/><path d="M1980.5 1758.5C1980.5 1748.56 1988.78 1740.5 1999 1740.5 2009.22 1740.5 2017.5 1748.56 2017.5 1758.5 2017.5 1768.44 2009.22 1776.5 1999 1776.5 1988.78 1776.5 1980.5 1768.44 1980.5 1758.5Z" stroke="#000000" stroke-width="6.875" stroke-linejoin="round" stroke-miterlimit="10" fill="#FFFFFF" fill-rule="evenodd"/><path d="M2593.5 1758.5C2593.5 1748.56 2601.78 1740.5 2612 1740.5 2622.22 1740.5 2630.5 1748.56 2630.5 1758.5 2630.5 1768.44 2622.22 1776.5 2612 1776.5 2601.78 1776.5 2593.5 1768.44 2593.5 1758.5Z" stroke="#000000" stroke-width="6.875" stroke-linejoin="round" stroke-miterlimit="10" fill="#FFFFFF" fill-rule="evenodd"/><path d="M2240 1752.75 2401.06 1752.75 2401.06 1747 2416 1758.5 2401.06 1770 2401.06 1764.25 2240 1764.25Z" fill-rule="evenodd"/><path d="M2167 1693C2167 1679.75 2189.61 1669 2217.5 1669 2245.39 1669 2268 1679.75 2268 1693 2268 1706.25 2245.39 1717 2217.5 1717 2189.61 1717 2167 1706.25 2167 1693Z" stroke="#000000" stroke-width="10.3125" stroke-linejoin="round" stroke-miterlimit="10" fill="#FFFFFF" fill-rule="evenodd"/><rect x="2157" y="1688" width="125" height="55.9996" fill="#FFFFFF"/><rect x="2163" y="1688" width="10" height="68.9998"/><path d="M2258 1669.5 2268.5 1659 2279 1669.5 2273.75 1669.5 2273.75 1688 2263.25 1688 2263.25 1669.5Z" fill-rule="evenodd"/><path d="M2251.5 1638.5C2251.5 1628.56 2259.78 1620.5 2270 1620.5 2280.22 1620.5 2288.5 1628.56 2288.5 1638.5 2288.5 1648.44 2280.22 1656.5 2270 1656.5 2259.78 1656.5 2251.5 1648.44 2251.5 1638.5Z" stroke="#000000" stroke-width="6.875" stroke-linejoin="round" stroke-miterlimit="10" fill="#FFFFFF" fill-rule="evenodd"/><path d="M2065 1630 2235.41 1630 2235.41 1624 2251 1636 2235.41 1648 2235.41 1642 2065 1642Z" fill-rule="evenodd"/><path d="M2207 1723.89 2212.5 1723.89 2212.5 1641 2223.5 1641 2223.5 1723.89 2229 1723.89 2218 1740Z" fill-rule="evenodd"/><path d="M2200.5 1757.5C2200.5 1747.56 2208.78 1739.5 2219 1739.5 2229.22 1739.5 2237.5 1747.56 2237.5 1757.5 2237.5 1767.44 2229.22 1775.5 2219 1775.5 2208.78 1775.5 2200.5 1767.44 2200.5 1757.5Z" stroke="#000000" stroke-width="6.875" stroke-linejoin="round" stroke-miterlimit="10" fill="#FFFFFF" fill-rule="evenodd"/><path d="M2381 1693C2381 1679.75 2403.61 1669 2431.5 1669 2459.39 1669 2482 1679.75 2482 1693 2482 1706.25 2459.39 1717 2431.5 1717 2403.61 1717 2381 1706.25 2381 1693Z" stroke="#000000" stroke-width="10.3125" stroke-linejoin="round" stroke-miterlimit="10" fill="#FFFFFF" fill-rule="evenodd"/><rect x="2371" y="1687" width="125" height="56" fill="#FFFFFF"/><rect x="2377" y="1687" width="10" height="69.9998"/><path d="M2472 1669.5 2482.5 1659 2493 1669.5 2487.75 1669.5 2487.75 1687 2477.25 1687 2477.25 1669.5Z" fill-rule="evenodd"/><path d="M2465.5 1637.5C2465.5 1627.56 2473.78 1619.5 2484 1619.5 2494.22 1619.5 2502.5 1627.56 2502.5 1637.5 2502.5 1647.44 2494.22 1655.5 2484 1655.5 2473.78 1655.5 2465.5 1647.44 2465.5 1637.5Z" stroke="#000000" stroke-width="6.875" stroke-linejoin="round" stroke-miterlimit="10" fill="#FFFFFF" fill-rule="evenodd"/><path d="M2289 1629.75 2450.06 1629.75 2450.06 1624 2465 1635.5 2450.06 1647 2450.06 1641.25 2289 1641.25Z" fill-rule="evenodd"/><path d="M2421 1723.89 2426.5 1723.89 2426.5 1640 2437.5 1640 2437.5 1723.89 2443 1723.89 2432 1740Z" fill-rule="evenodd"/><path d="M2290 1691.67C2290 1690.75 2290.75 1690 2291.67 1690L2298.33 1690C2299.25 1690 2300 1690.75 2300 1691.67L2300 1822.33C2300 1823.25 2299.25 1824 2298.33 1824L2291.67 1824C2290.75 1824 2290 1823.25 2290 1822.33Z" fill="#7F7F7F" fill-rule="evenodd"/><path d="M2305 1697.5C2305 1696.67 2305.67 1696 2306.5 1696L2312.5 1696C2313.33 1696 2314 1696.67 2314 1697.5L2314 1817.5C2314 1818.33 2313.33 1819 2312.5 1819L2306.5 1819C2305.67 1819 2305 1818.33 2305 1817.5Z" fill="#7F7F7F" fill-rule="evenodd"/><path d="M2319 1702.67C2319 1701.75 2319.75 1701 2320.67 1701L2327.33 1701C2328.25 1701 2329 1701.75 2329 1702.67L2329 1810.33C2329 1811.25 2328.25 1812 2327.33 1812L2320.67 1812C2319.75 1812 2319 1811.25 2319 1810.33Z" fill="#7F7F7F" fill-rule="evenodd"/><path d="M2334 1709.5C2334 1708.67 2334.67 1708 2335.5 1708L2341.5 1708C2342.33 1708 2343 1708.67 2343 1709.5L2343 1803.5C2343 1804.33 2342.33 1805 2341.5 1805L2335.5 1805C2334.67 1805 2334 1804.33 2334 1803.5Z" fill="#7F7F7F" fill-rule="evenodd"/><path d="M2348 1718.5C2348 1717.67 2348.67 1717 2349.5 1717L2355.5 1717C2356.33 1717 2357 1717.67 2357 1718.5L2357 1795.5C2357 1796.33 2356.33 1797 2355.5 1797L2349.5 1797C2348.67 1797 2348 1796.33 2348 1795.5Z" fill="#7F7F7F" fill-rule="evenodd"/><path d="M2413.5 1759C2413.5 1749.33 2421.78 1741.5 2432 1741.5 2442.22 1741.5 2450.5 1749.33 2450.5 1759 2450.5 1768.66 2442.22 1776.5 2432 1776.5 2421.78 1776.5 2413.5 1768.66 2413.5 1759Z" stroke="#000000" stroke-width="6.875" stroke-linejoin="round" stroke-miterlimit="10" fill="#FFFFFF" fill-rule="evenodd"/><path d="M2600 1722.16 2605.75 1722.16 2605.75 1638 2617.25 1638 2617.25 1722.16 2623 1722.16 2611.5 1739Z" fill-rule="evenodd"/><rect x="2500" y="1631" width="117" height="13.0001"/><path d="M1607.5 1850.5C1607.5 1840.56 1615.78 1832.5 1626 1832.5 1636.22 1832.5 1644.5 1840.56 1644.5 1850.5 1644.5 1860.44 1636.22 1868.5 1626 1868.5 1615.78 1868.5 1607.5 1860.44 1607.5 1850.5Z" stroke="#000000" stroke-width="6.875" stroke-linejoin="round" stroke-miterlimit="10" fill="#FFFFFF" fill-rule="evenodd"/><path d="M1615 1815.16 1620.75 1815.16 1620.75 1797 1632.25 1797 1632.25 1815.16 1638 1815.16 1626.5 1832Z" fill-rule="evenodd"/><rect x="1585" y="1797" width="43" height="11"/><path d="M0 19.1627 5.75002 19.1627 5.75002 0 17.25 0 17.25 19.1627 23 19.1627 11.5 36.0001Z" fill-rule="evenodd" transform="matrix(1 0 0 -1 1615 1903)"/><rect x="0" y="0" width="43" height="12" transform="matrix(1 0 0 -1 1585 1903)"/><path d="M708.5 437.602 776.737 345.5 770.008 430.059 847.467 416.276 816.703 461.659 897.278 474.713 833.295 511.839 906.5 556.54 819.178 551.014 843.158 632.842 767.533 575.072 753.362 658.916 703.587 582.662 666.058 688.5 651.942 593.651 597.803 625.251 614.395 566.814 512.975 577.136 578.737 532.483 510.5 482.303 595.328 466.455 517.283 381.944 644.553 445.859 663.62 381.944Z" stroke="#000000" stroke-width="4.58333" stroke-linejoin="round" stroke-miterlimit="10" fill="#B7302C" fill-rule="evenodd"/><text fill="#FFFFFF" font-family="Arial,Arial_MSFontService,sans-serif" font-weight="700" font-size="83" transform="matrix(1 0 0 1 629.898 537)">Env</text><path d="M388.5 1485.5C388.5 1439.11 520.576 1401.5 683.5 1401.5 846.424 1401.5 978.5 1439.11 978.5 1485.5 978.5 1531.89 846.424 1569.5 683.5 1569.5 520.576 1569.5 388.5 1531.89 388.5 1485.5Z" stroke="#000000" stroke-width="4.58333" stroke-linejoin="round" stroke-miterlimit="10" fill="#48A23F" fill-rule="evenodd"/><text fill="#FFFFFF" font-family="Arial,Arial_MSFontService,sans-serif" font-weight="700" font-size="55" transform="matrix(1 0 0 1 525.327 1505)">Start Config</text><path d="M383.5 2023.5C383.5 1977.11 515.576 1939.5 678.5 1939.5 841.424 1939.5 973.5 1977.11 973.5 2023.5 973.5 2069.89 841.424 2107.5 678.5 2107.5 515.576 2107.5 383.5 2069.89 383.5 2023.5Z" stroke="#000000" stroke-width="4.58333" stroke-linejoin="round" stroke-miterlimit="10" fill="#DE7976" fill-rule="evenodd"/><text fill="#FFFFFF" font-family="Arial,Arial_MSFontService,sans-serif" font-weight="700" font-size="55" transform="matrix(1 0 0 1 521.729 2043)">Goal Config</text><path d="M3221 1214.5C3221 1192.68 3253.01 1175 3292.5 1175 3331.99 1175 3364 1192.68 3364 1214.5 3364 1236.32 3331.99 1254 3292.5 1254 3253.01 1254 3221 1236.32 3221 1214.5Z" stroke="#000000" stroke-width="10.3125" stroke-linejoin="round" stroke-miterlimit="10" fill="none" fill-rule="evenodd"/><path d="M3413.92 1206.83 3491.08 1206.83 3491.08 1223.77 3413.92 1223.77ZM3413.92 1232.23 3491.08 1232.23 3491.08 1249.17 3413.92 1249.17Z" fill-rule="evenodd"/><text font-family="Arial,Arial_MSFontService,sans-serif" font-weight="700" font-size="64" transform="matrix(1 0 0 1 3527.27 1244)">Fixed Size</text><path d="M3292.5 1313.83 3317.14 1280 3314.71 1311.06 3342.68 1306 3331.57 1322.67 3360.67 1327.47 3337.56 1341.1 3364 1357.53 3332.47 1355.49 3341.13 1385.55 3313.82 1364.33 3308.7 1395.13 3290.73 1367.12 3277.17 1406 3272.08 1371.16 3252.53 1382.77 3258.52 1361.3 3221.89 1365.09 3245.64 1348.69 3221 1330.25 3251.63 1324.43 3223.45 1293.39 3269.41 1316.87 3276.29 1293.39Z" stroke="#000000" stroke-width="10.3125" stroke-linejoin="round" stroke-miterlimit="10" fill="#FFFFFF" fill-rule="evenodd"/><path d="M3413.92 1327.27 3491.08 1327.27 3491.08 1345.85 3413.92 1345.85ZM3413.92 1355.15 3491.08 1355.15 3491.08 1373.73 3413.92 1373.73Z" fill-rule="evenodd"/><text font-family="Arial,Arial_MSFontService,sans-serif" font-weight="700" font-size="64" transform="matrix(1 0 0 1 3527.27 1373)">Variable Size</text><rect x="3221" y="1059" width="143" height="79.9998" stroke="#000000" stroke-width="10.3125" stroke-linejoin="round" stroke-miterlimit="10" fill="none"/><text font-family="Arial,Arial_MSFontService,sans-serif" font-weight="700" font-size="64" transform="matrix(1 0 0 1 3527.28 1121)">Module</text><path d="M3413.92 1081.48 3491.08 1081.48 3491.08 1100.3 3413.92 1100.3ZM3413.92 1109.7 3491.08 1109.7 3491.08 1128.52 3413.92 1128.52Z" fill-rule="evenodd"/><text font-family="Arial,Arial_MSFontService,sans-serif" font-weight="700" font-size="64" text-decoration="underline" transform="matrix(1 0 0 1 3192.79 1005)">Legend</text><path d="M3063.5 505C3063.5 442.316 3199.38 391.5 3367 391.5 3534.62 391.5 3670.5 442.316 3670.5 505 3670.5 567.684 3534.62 618.5 3367 618.5 3199.38 618.5 3063.5 567.684 3063.5 505Z" stroke="#000000" stroke-width="3.4375" stroke-linejoin="round" stroke-miterlimit="10" fill="#92D050" fill-rule="evenodd"/><text fill="#FFFFFF" font-family="Arial,Arial_MSFontService,sans-serif" font-weight="700" font-size="73" transform="matrix(1 0 0 1 3189.01 488)">Optimized </text><text fill="#FFFFFF" font-family="Arial,Arial_MSFontService,sans-serif" font-weight="700" font-size="73" transform="matrix(1 0 0 1 3191.33 576)">Trajectory</text></g></svg>