<svg width="4572" height="1008" xmlns="http://www.w3.org/2000/svg" xmlns:xlink="http://www.w3.org/1999/xlink" xml:space="preserve" overflow="hidden"><defs><clipPath id="clip0"><rect x="12" y="570" width="4572" height="1008"/></clipPath></defs><g clip-path="url(#clip0)" transform="translate(-12 -570)"><path d="M3670 1031 3939.22 1031 3939.22 1013 3986 1049 3939.22 1085 3939.22 1067 3670 1067Z" fill-rule="evenodd"/><path d="M3133 1030 3526.22 1030 3526.22 1012 3573 1048 3526.22 1084 3526.22 1066 3133 1066Z" fill-rule="evenodd"/><path d="M1807 1031.25 2317.57 1031.25 2317.57 1013 2365 1049.5 2317.57 1086 2317.57 1067.75 1807 1067.75Z" fill-rule="evenodd"/><path d="M1209 1033.25 1646.57 1033.25 1646.57 1015 1694 1051.5 1646.57 1088 1646.57 1069.75 1209 1069.75Z" fill-rule="evenodd"/><path d="M673 1320 1130.73 1320 1130.73 1191.01 1087.45 1191.01 1146.73 1111 1206 1191.01 1162.72 1191.01 1162.72 1352 673 1352Z" fill-rule="evenodd"/><path d="M0 204.668 614.29 204.668 614.29 78.3497 571.912 78.3497 629.955 0 688 78.3497 645.621 78.3497 645.621 236 0 236Z" fill-rule="evenodd" transform="matrix(1 0 0 -1 518 993)"/><path d="M1593 846C1593 805.131 1661.95 772 1747 772 1832.05 772 1901 805.131 1901 846 1901 886.869 1832.05 920 1747 920 1661.95 920 1593 886.869 1593 846Z" stroke="#000000" stroke-width="27.5" stroke-linejoin="round" stroke-miterlimit="10" fill="#FFFFFF" fill-rule="evenodd"/><rect x="1563" y="830" width="382" height="173" fill="#FFFFFF"/><rect x="1583" y="830" width="28.9999" height="214"/><path d="M1870 773 1903 740 1936 773 1919.5 773 1919.5 830 1886.5 830 1886.5 773Z" fill-rule="evenodd"/><path d="M1849.5 675C1849.5 644.348 1874.8 619.5 1906 619.5 1937.2 619.5 1962.5 644.348 1962.5 675 1962.5 705.652 1937.2 730.5 1906 730.5 1874.8 730.5 1849.5 705.652 1849.5 675Z" stroke="#000000" stroke-width="20.625" stroke-linejoin="round" stroke-miterlimit="10" fill="#FFFFFF" fill-rule="evenodd"/><rect x="1233" y="651" width="34" height="390"/><path d="M1255 651 1802.22 651 1802.22 633 1849 669 1802.22 705 1802.22 687 1255 687Z" fill-rule="evenodd"/><path d="M1715 941.488 1732.25 941.488 1732.25 684 1766.75 684 1766.75 941.488 1784 941.488 1749.5 992Z" fill-rule="evenodd"/><path d="M801 574.833C801 572.164 803.164 570 805.833 570L825.167 570C827.836 570 830 572.164 830 574.833L830 980.166C830 982.836 827.836 985 825.167 985L805.833 985C803.164 985 801 982.836 801 980.166Z" fill="#7F7F7F" fill-rule="evenodd"/><path d="M845 592.834C845 590.164 847.164 588 849.833 588L869.167 588C871.836 588 874 590.164 874 592.834L874 965.167C874 967.836 871.836 970 869.167 970L849.833 970C847.164 970 845 967.836 845 965.167Z" fill="#7F7F7F" fill-rule="evenodd"/><path d="M889 609.833C889 607.164 891.164 605 893.833 605L913.167 605C915.836 605 918 607.164 918 609.833L918 942.167C918 944.836 915.836 947 913.167 947L893.833 947C891.164 947 889 944.836 889 942.167Z" fill="#7F7F7F" fill-rule="evenodd"/><path d="M934 630.833C934 628.164 936.164 626 938.833 626L958.166 626C960.836 626 963 628.164 963 630.833L963 921.167C963 923.836 960.836 926 958.166 926L938.833 926C936.164 926 934 923.836 934 921.167Z" fill="#7F7F7F" fill-rule="evenodd"/><path d="M976 655.834C976 653.164 978.164 651 980.833 651L1000.17 651C1002.84 651 1005 653.164 1005 655.834L1005 895.166C1005 897.836 1002.84 900 1000.17 900L980.833 900C978.164 900 976 897.836 976 895.166Z" fill="#7F7F7F" fill-rule="evenodd"/><path d="M801 1127.83C801 1125.16 803.164 1123 805.833 1123L825.167 1123C827.836 1123 830 1125.16 830 1127.83L830 1533.17C830 1535.84 827.836 1538 825.167 1538L805.833 1538C803.164 1538 801 1535.84 801 1533.17Z" fill="#7F7F7F" fill-rule="evenodd"/><path d="M845 1145.83C845 1143.16 847.164 1141 849.833 1141L869.167 1141C871.836 1141 874 1143.16 874 1145.83L874 1518.17C874 1520.84 871.836 1523 869.167 1523L849.833 1523C847.164 1523 845 1520.84 845 1518.17Z" fill="#7F7F7F" fill-rule="evenodd"/><path d="M889 1162.83C889 1160.16 891.164 1158 893.833 1158L913.167 1158C915.836 1158 918 1160.16 918 1162.83L918 1495.17C918 1497.84 915.836 1500 913.167 1500L893.833 1500C891.164 1500 889 1497.84 889 1495.17Z" fill="#7F7F7F" fill-rule="evenodd"/><path d="M934 1183.83C934 1181.16 936.164 1179 938.833 1179L958.166 1179C960.836 1179 963 1181.16 963 1183.83L963 1474.17C963 1476.84 960.836 1479 958.166 1479L938.833 1479C936.164 1479 934 1476.84 934 1474.17Z" fill="#7F7F7F" fill-rule="evenodd"/><path d="M976 1208.83C976 1206.16 978.164 1204 980.833 1204L1000.17 1204C1002.84 1204 1005 1206.16 1005 1208.83L1005 1448.17C1005 1450.84 1002.84 1453 1000.17 1453L980.833 1453C978.164 1453 976 1450.84 976 1448.17Z" fill="#7F7F7F" fill-rule="evenodd"/><path d="M1323 846.833C1323 844.164 1325.16 842 1327.83 842L1347.17 842C1349.84 842 1352 844.164 1352 846.833L1352 1253.17C1352 1255.84 1349.84 1258 1347.17 1258L1327.83 1258C1325.16 1258 1323 1255.84 1323 1253.17Z" fill="#7F7F7F" fill-rule="evenodd"/><path d="M1368 865.834C1368 863.164 1370.16 861 1372.83 861L1392.17 861C1394.84 861 1397 863.164 1397 865.834L1397 1238.17C1397 1240.84 1394.84 1243 1392.17 1243L1372.83 1243C1370.16 1243 1368 1240.84 1368 1238.17Z" fill="#7F7F7F" fill-rule="evenodd"/><path d="M1412 882.833C1412 880.164 1414.16 878 1416.83 878L1436.17 878C1438.84 878 1441 880.164 1441 882.833L1441 1215.17C1441 1217.84 1438.84 1220 1436.17 1220L1416.83 1220C1414.16 1220 1412 1217.84 1412 1215.17Z" fill="#7F7F7F" fill-rule="evenodd"/><path d="M1456 903.833C1456 901.164 1458.16 899 1460.83 899L1480.17 899C1482.84 899 1485 901.164 1485 903.833L1485 1193.17C1485 1195.84 1482.84 1198 1480.17 1198L1460.83 1198C1458.16 1198 1456 1195.84 1456 1193.17Z" fill="#7F7F7F" fill-rule="evenodd"/><path d="M1499 928.833C1499 926.164 1501.16 924 1503.83 924L1523.17 924C1525.84 924 1528 926.164 1528 928.833L1528 1168.17C1528 1170.84 1525.84 1173 1523.17 1173L1503.83 1173C1501.16 1173 1499 1170.84 1499 1168.17Z" fill="#7F7F7F" fill-rule="evenodd"/><path d="M1986 848.833C1986 846.164 1988.16 844 1990.83 844L2010.17 844C2012.84 844 2015 846.164 2015 848.833L2015 1254.17C2015 1256.84 2012.84 1259 2010.17 1259L1990.83 1259C1988.16 1259 1986 1256.84 1986 1254.17Z" fill="#7F7F7F" fill-rule="evenodd"/><path d="M2031 866.834C2031 864.164 2033.16 862 2035.83 862L2055.17 862C2057.84 862 2060 864.164 2060 866.834L2060 1239.17C2060 1241.84 2057.84 1244 2055.17 1244L2035.83 1244C2033.16 1244 2031 1241.84 2031 1239.17Z" fill="#7F7F7F" fill-rule="evenodd"/><path d="M2075 883.833C2075 881.164 2077.16 879 2079.83 879L2099.17 879C2101.84 879 2104 881.164 2104 883.833L2104 1216.17C2104 1218.84 2101.84 1221 2099.17 1221L2079.83 1221C2077.16 1221 2075 1218.84 2075 1216.17Z" fill="#7F7F7F" fill-rule="evenodd"/><path d="M2119 904.833C2119 902.164 2121.16 900 2123.83 900L2143.17 900C2145.84 900 2148 902.164 2148 904.833L2148 1195.17C2148 1197.84 2145.84 1200 2143.17 1200L2123.83 1200C2121.16 1200 2119 1197.84 2119 1195.17Z" fill="#7F7F7F" fill-rule="evenodd"/><path d="M2162 930.834C2162 928.164 2164.16 926 2166.83 926L2186.17 926C2188.84 926 2191 928.164 2191 930.834L2191 1170.17C2191 1172.84 2188.84 1175 2186.17 1175L2166.83 1175C2164.16 1175 2162 1172.84 2162 1170.17Z" fill="#7F7F7F" fill-rule="evenodd"/><path d="M3271 858.833C3271 856.164 3273.16 854 3275.83 854L3295.17 854C3297.84 854 3300 856.164 3300 858.833L3300 1264.17C3300 1266.84 3297.84 1269 3295.17 1269L3275.83 1269C3273.16 1269 3271 1266.84 3271 1264.17Z" fill="#7F7F7F" fill-rule="evenodd"/><path d="M3315 877C3315 874.239 3317.24 872 3320 872L3340 872C3342.76 872 3345 874.239 3345 877L3345 1249C3345 1251.76 3342.76 1254 3340 1254L3320 1254C3317.24 1254 3315 1251.76 3315 1249Z" fill="#7F7F7F" fill-rule="evenodd"/><path d="M3360 893.833C3360 891.164 3362.16 889 3364.83 889L3384.17 889C3386.84 889 3389 891.164 3389 893.833L3389 1226.17C3389 1228.84 3386.84 1231 3384.17 1231L3364.83 1231C3362.16 1231 3360 1228.84 3360 1226.17Z" fill="#7F7F7F" fill-rule="evenodd"/><path d="M3404 914.833C3404 912.164 3406.16 910 3408.83 910L3428.17 910C3430.84 910 3433 912.164 3433 914.833L3433 1205.17C3433 1207.84 3430.84 1210 3428.17 1210L3408.83 1210C3406.16 1210 3404 1207.84 3404 1205.17Z" fill="#7F7F7F" fill-rule="evenodd"/><path d="M3447 940.834C3447 938.164 3449.16 936 3451.83 936L3471.17 936C3473.84 936 3476 938.164 3476 940.834L3476 1180.17C3476 1182.84 3473.84 1185 3471.17 1185L3451.83 1185C3449.16 1185 3447 1182.84 3447 1180.17Z" fill="#7F7F7F" fill-rule="evenodd"/><path d="M3732 851.833C3732 849.164 3734.16 847 3736.83 847L3756.17 847C3758.84 847 3761 849.164 3761 851.833L3761 1258.17C3761 1260.84 3758.84 1263 3756.17 1263L3736.83 1263C3734.16 1263 3732 1260.84 3732 1258.17Z" fill="#7F7F7F" fill-rule="evenodd"/><path d="M3775 885.833C3775 883.164 3777.16 881 3779.83 881L3799.17 881C3801.84 881 3804 883.164 3804 885.833L3804 1219.17C3804 1221.84 3801.84 1224 3799.17 1224L3779.83 1224C3777.16 1224 3775 1221.84 3775 1219.17Z" fill="#7F7F7F" fill-rule="evenodd"/><path d="M3817 936.833C3817 934.164 3819.16 932 3821.83 932L3841.17 932C3843.84 932 3846 934.164 3846 936.833L3846 1176.17C3846 1178.84 3843.84 1181 3841.17 1181L3821.83 1181C3819.16 1181 3817 1178.84 3817 1176.17Z" fill="#7F7F7F" fill-rule="evenodd"/><path d="M1091.5 1053C1091.5 1022.35 1116.8 997.5 1148 997.5 1179.2 997.5 1204.5 1022.35 1204.5 1053 1204.5 1083.65 1179.2 1108.5 1148 1108.5 1116.8 1108.5 1091.5 1083.65 1091.5 1053Z" stroke="#000000" stroke-width="20.625" stroke-linejoin="round" stroke-miterlimit="10" fill="#FFFFFF" fill-rule="evenodd"/><path d="M1694.5 1049C1694.5 1018.35 1719.8 993.5 1751 993.5 1782.2 993.5 1807.5 1018.35 1807.5 1049 1807.5 1079.65 1782.2 1104.5 1751 1104.5 1719.8 1104.5 1694.5 1079.65 1694.5 1049Z" stroke="#000000" stroke-width="20.625" stroke-linejoin="round" stroke-miterlimit="10" fill="#FFFFFF" fill-rule="evenodd"/><path d="M3564.5 1048C3564.5 1017.35 3589.8 992.5 3621 992.5 3652.2 992.5 3677.5 1017.35 3677.5 1048 3677.5 1078.65 3652.2 1103.5 3621 1103.5 3589.8 1103.5 3564.5 1078.65 3564.5 1048Z" stroke="#000000" stroke-width="20.625" stroke-linejoin="round" stroke-miterlimit="10" fill="#FFFFFF" fill-rule="evenodd"/><path d="M2485 1031.25 2976.57 1031.25 2976.57 1013 3024 1049.5 2976.57 1086 2976.57 1067.75 2485 1067.75Z" fill-rule="evenodd"/><path d="M2263 848C2263 807.131 2331.95 774 2417 774 2502.05 774 2571 807.131 2571 848 2571 888.869 2502.05 922 2417 922 2331.95 922 2263 888.869 2263 848Z" stroke="#000000" stroke-width="27.5" stroke-linejoin="round" stroke-miterlimit="10" fill="#FFFFFF" fill-rule="evenodd"/><rect x="2233" y="832" width="382" height="173" fill="#FFFFFF"/><rect x="2253" y="832" width="29.0002" height="214"/><path d="M2540 775 2573 742 2606 775 2589.5 775 2589.5 832 2556.5 832 2556.5 775Z" fill-rule="evenodd"/><path d="M2519.5 677C2519.5 646.348 2544.8 621.5 2576 621.5 2607.2 621.5 2632.5 646.348 2632.5 677 2632.5 707.652 2607.2 732.5 2576 732.5 2544.8 732.5 2519.5 707.652 2519.5 677Z" stroke="#000000" stroke-width="20.625" stroke-linejoin="round" stroke-miterlimit="10" fill="#FFFFFF" fill-rule="evenodd"/><path d="M1952 653 2472.22 653 2472.22 635 2519 671 2472.22 707 2472.22 689 1952 689Z" fill-rule="evenodd"/><path d="M2385 943.488 2402.25 943.488 2402.25 686 2436.75 686 2436.75 943.488 2454 943.488 2419.5 994Z" fill-rule="evenodd"/><path d="M2365.5 1047C2365.5 1016.35 2390.8 991.5 2422 991.5 2453.2 991.5 2478.5 1016.35 2478.5 1047 2478.5 1077.65 2453.2 1102.5 2422 1102.5 2390.8 1102.5 2365.5 1077.65 2365.5 1047Z" stroke="#000000" stroke-width="20.625" stroke-linejoin="round" stroke-miterlimit="10" fill="#FFFFFF" fill-rule="evenodd"/><path d="M2916 846.5C2916 805.355 2984.95 772 3070 772 3155.05 772 3224 805.355 3224 846.5 3224 887.645 3155.05 921 3070 921 2984.95 921 2916 887.645 2916 846.5Z" stroke="#000000" stroke-width="27.5" stroke-linejoin="round" stroke-miterlimit="10" fill="#FFFFFF" fill-rule="evenodd"/><rect x="2885" y="830" width="383" height="174" fill="#FFFFFF"/><rect x="2906" y="830" width="28.9998" height="215"/><path d="M3193 773.5 3225.5 741 3258 773.5 3241.75 773.5 3241.75 830 3209.25 830 3209.25 773.5Z" fill-rule="evenodd"/><path d="M3172.5 675.5C3172.5 645.124 3197.57 620.5 3228.5 620.5 3259.43 620.5 3284.5 645.124 3284.5 675.5 3284.5 705.876 3259.43 730.5 3228.5 730.5 3197.57 730.5 3172.5 705.876 3172.5 675.5Z" stroke="#000000" stroke-width="20.625" stroke-linejoin="round" stroke-miterlimit="10" fill="#FFFFFF" fill-rule="evenodd"/><path d="M2637 651.25 3124.57 651.25 3124.57 633 3172 669.5 3124.57 706 3124.57 687.75 2637 687.75Z" fill-rule="evenodd"/><path d="M3038 941.488 3055.25 941.488 3055.25 684 3089.75 684 3089.75 941.488 3107 941.488 3072.5 992Z" fill-rule="evenodd"/><path d="M2640 843.834C2640 841.164 2642.16 839 2644.83 839L2664.17 839C2666.84 839 2669 841.164 2669 843.834L2669 1249.17C2669 1251.84 2666.84 1254 2664.17 1254L2644.83 1254C2642.16 1254 2640 1251.84 2640 1249.17Z" fill="#7F7F7F" fill-rule="evenodd"/><path d="M2684 861.833C2684 859.164 2686.16 857 2688.83 857L2708.17 857C2710.84 857 2713 859.164 2713 861.833L2713 1234.17C2713 1236.84 2710.84 1239 2708.17 1239L2688.83 1239C2686.16 1239 2684 1236.84 2684 1234.17Z" fill="#7F7F7F" fill-rule="evenodd"/><path d="M2729 878.834C2729 876.164 2731.16 874 2733.83 874L2753.17 874C2755.84 874 2758 876.164 2758 878.834L2758 1211.17C2758 1213.84 2755.84 1216 2753.17 1216L2733.83 1216C2731.16 1216 2729 1213.84 2729 1211.17Z" fill="#7F7F7F" fill-rule="evenodd"/><path d="M2773 899.833C2773 897.164 2775.16 895 2777.83 895L2797.17 895C2799.84 895 2802 897.164 2802 899.833L2802 1190.17C2802 1192.84 2799.84 1195 2797.17 1195L2777.83 1195C2775.16 1195 2773 1192.84 2773 1190.17Z" fill="#7F7F7F" fill-rule="evenodd"/><path d="M2816 924.833C2816 922.164 2818.16 920 2820.83 920L2840.17 920C2842.84 920 2845 922.164 2845 924.833L2845 1164.17C2845 1166.84 2842.84 1169 2840.17 1169L2820.83 1169C2818.16 1169 2816 1166.84 2816 1164.17Z" fill="#7F7F7F" fill-rule="evenodd"/><path d="M3015.5 1051C3015.5 1020.35 3040.8 995.5 3072 995.5 3103.2 995.5 3128.5 1020.35 3128.5 1051 3128.5 1081.65 3103.2 1106.5 3072 1106.5 3040.8 1106.5 3015.5 1081.65 3015.5 1051Z" stroke="#000000" stroke-width="20.625" stroke-linejoin="round" stroke-miterlimit="10" fill="#FFFFFF" fill-rule="evenodd"/><path d="M3585 939.756 3602.5 939.756 3602.5 677 3637.5 677 3637.5 939.756 3655 939.756 3620 991Z" fill-rule="evenodd"/><rect x="3280" y="656" width="357" height="41.0002"/><path d="M91.4999 1189.5C91.4999 1143.11 181.043 1105.5 291.5 1105.5 401.957 1105.5 491.5 1143.11 491.5 1189.5 491.5 1235.89 401.957 1273.5 291.5 1273.5 181.043 1273.5 91.4999 1235.89 91.4999 1189.5Z" stroke="#000000" stroke-width="4.58333" stroke-linejoin="round" stroke-miterlimit="10" fill="#48A23F" fill-rule="evenodd"/><text fill="#FFFFFF" font-family="Arial,Arial_MSFontService,sans-serif" font-weight="700" font-size="55" transform="matrix(1 0 0 1 228.41 1176)">Start </text><text fill="#FFFFFF" font-family="Arial,Arial_MSFontService,sans-serif" font-weight="700" font-size="55" transform="matrix(1 0 0 1 203.477 1242)">Config</text><path d="M91.4999 1479.5C91.4999 1433.11 181.043 1395.5 291.5 1395.5 401.957 1395.5 491.5 1433.11 491.5 1479.5 491.5 1525.89 401.957 1563.5 291.5 1563.5 181.043 1563.5 91.4999 1525.89 91.4999 1479.5Z" stroke="#000000" stroke-width="4.58333" stroke-linejoin="round" stroke-miterlimit="10" fill="#DE7976" fill-rule="evenodd"/><text fill="#FFFFFF" font-family="Arial,Arial_MSFontService,sans-serif" font-weight="700" font-size="55" transform="matrix(1 0 0 1 229.556 1466)">Goal </text><text fill="#FFFFFF" font-family="Arial,Arial_MSFontService,sans-serif" font-weight="700" font-size="55" transform="matrix(1 0 0 1 203.477 1532)">Config</text><path d="M557.5 1334C557.5 1303.35 582.796 1278.5 614 1278.5 645.204 1278.5 670.5 1303.35 670.5 1334 670.5 1364.65 645.204 1389.5 614 1389.5 582.796 1389.5 557.5 1364.65 557.5 1334Z" stroke="#000000" stroke-width="20.625" stroke-linejoin="round" stroke-miterlimit="10" fill="#FFFFFF" fill-rule="evenodd"/><path d="M580 1227.49 597.25 1227.49 597.25 1169 631.75 1169 631.75 1227.49 649 1227.49 614.5 1278Z" fill-rule="evenodd"/><rect x="488" y="1169" width="132" height="35.0001"/><path d="M0 59.4878 17.2501 59.4878 17.2501 0 51.75 0 51.75 59.4878 69.0001 59.4878 34.5001 110Z" fill-rule="evenodd" transform="matrix(1 0 0 -1 580 1497)"/><rect x="0" y="0" width="132" height="36.0001" transform="matrix(1 0 0 -1 488 1497)"/><path d="M14.4999 773C14.4999 708.107 148.591 655.5 314 655.5 479.409 655.5 613.5 708.107 613.5 773 613.5 837.894 479.409 890.5 314 890.5 148.591 890.5 14.4999 837.894 14.4999 773Z" stroke="#000000" stroke-width="4.58333" stroke-linejoin="round" stroke-miterlimit="10" fill="#7030A0" fill-rule="evenodd"/><text fill="#FFFFFF" font-family="Arial,Arial_MSFontService,sans-serif" font-weight="700" font-size="55" transform="matrix(1 0 0 1 145.552 726)">Environment</text><text fill="#FFFFFF" font-family="Arial,Arial_MSFontService,sans-serif" font-weight="700" font-size="55" transform="matrix(1 0 0 1 187.948 792)">Encoding </text><text fill="#FFFFFF" font-family="Arial,Arial_MSFontService,sans-serif" font-weight="700" font-size="55" transform="matrix(1 0 0 1 229.863 858)">Vector</text><path d="M3982.5 1045C3982.5 980.107 4116.59 927.5 4282 927.5 4447.41 927.5 4581.5 980.107 4581.5 1045 4581.5 1109.89 4447.41 1162.5 4282 1162.5 4116.59 1162.5 3982.5 1109.89 3982.5 1045Z" stroke="#000000" stroke-width="4.58333" stroke-linejoin="round" stroke-miterlimit="10" fill="#0076A8" fill-rule="evenodd"/><text fill="#FFFFFF" font-family="Arial,Arial_MSFontService,sans-serif" font-weight="700" font-size="55" transform="matrix(1 0 0 1 4118.17 999)">Intermediate </text><text fill="#FFFFFF" font-family="Arial,Arial_MSFontService,sans-serif" font-weight="700" font-size="55" transform="matrix(1 0 0 1 4150.32 1065)">Trajectory </text><text fill="#FFFFFF" font-family="Arial,Arial_MSFontService,sans-serif" font-weight="700" font-size="55" transform="matrix(1 0 0 1 4197.5 1131)">Guess</text></g></svg>